<?xml version="1.0" encoding="UTF-8" standalone="no"?>
<!-- Created with Inkscape (http://www.inkscape.org/) -->

<svg
   version="1.1"
   id="svg2"
   width="763.19995"
   height="266.89066"
   viewBox="0 0 763.19995 266.89066"
   sodipodi:docname="spline_analytical.pdf"
   xmlns:inkscape="http://www.inkscape.org/namespaces/inkscape"
   xmlns:sodipodi="http://sodipodi.sourceforge.net/DTD/sodipodi-0.dtd"
   xmlns="http://www.w3.org/2000/svg"
   xmlns:svg="http://www.w3.org/2000/svg">
    <style>
        path {
            text: black;
        }
        @media (prefers-color-scheme: dark) {
            text { fill: white; }
        }
    </style>
  <defs
     id="defs6">
    <clipPath
       clipPathUnits="userSpaceOnUse"
       id="clipPath22">
      <path
         d="m 7.2,26.648 h 558 v 166.32 H 7.2 Z"
         id="path20" />
    </clipPath>
    <clipPath
       clipPathUnits="userSpaceOnUse"
       id="clipPath32">
      <path
         d="M -13,-13 H 13 V 13 H -13 Z"
         id="path30" />
    </clipPath>
    <clipPath
       clipPathUnits="userSpaceOnUse"
       id="clipPath44">
      <path
         d="M -13,-13 H 13 V 13 H -13 Z"
         id="path42" />
    </clipPath>
    <clipPath
       clipPathUnits="userSpaceOnUse"
       id="clipPath56">
      <path
         d="M -13,-13 H 13 V 13 H -13 Z"
         id="path54" />
    </clipPath>
    <clipPath
       clipPathUnits="userSpaceOnUse"
       id="clipPath68">
      <path
         d="M -13,-13 H 13 V 13 H -13 Z"
         id="path66" />
    </clipPath>
    <clipPath
       clipPathUnits="userSpaceOnUse"
       id="clipPath80">
      <path
         d="M -13,-13 H 13 V 13 H -13 Z"
         id="path78" />
    </clipPath>
    <clipPath
       clipPathUnits="userSpaceOnUse"
       id="clipPath92">
      <path
         d="M -13,-13 H 13 V 13 H -13 Z"
         id="path90" />
    </clipPath>
    <clipPath
       clipPathUnits="userSpaceOnUse"
       id="clipPath104">
      <path
         d="M -13,-13 H 13 V 13 H -13 Z"
         id="path102" />
    </clipPath>
    <clipPath
       clipPathUnits="userSpaceOnUse"
       id="clipPath116">
      <path
         d="M -13,-13 H 13 V 13 H -13 Z"
         id="path114" />
    </clipPath>
    <clipPath
       clipPathUnits="userSpaceOnUse"
       id="clipPath126">
      <path
         d="m 7.2,26.648 h 558 v 166.32 H 7.2 Z"
         id="path124" />
    </clipPath>
    <clipPath
       clipPathUnits="userSpaceOnUse"
       id="clipPath150">
      <path
         d="m 7.2,26.648 h 558 v 166.32 H 7.2 Z"
         id="path148" />
    </clipPath>
    <clipPath
       clipPathUnits="userSpaceOnUse"
       id="clipPath160">
      <path
         d="m 7.2,26.648 h 558 v 166.32 H 7.2 Z"
         id="path158" />
    </clipPath>
    <clipPath
       clipPathUnits="userSpaceOnUse"
       id="clipPath170">
      <path
         d="m 7.2,26.648 h 558 v 166.32 H 7.2 Z"
         id="path168" />
    </clipPath>
  </defs>
  <sodipodi:namedview
     id="namedview4"
     pagecolor="#ffffff"
     bordercolor="#000000"
     borderopacity="0.25"
     inkscape:showpageshadow="2"
     inkscape:pageopacity="0.0"
     inkscape:pagecheckerboard="0"
     inkscape:deskcolor="#d1d1d1"
     showgrid="false" />
  <g
     id="g10"
     inkscape:groupmode="layer"
     inkscape:label="Page 1"
     transform="matrix(1.3333333,0,0,-1.3333333,0,266.89066)">
    <g
       id="g16">
      <g
         id="g18"
         clip-path="url(#clipPath22)">
        <g
           id="g24"
           transform="translate(55.621488,109.808)">
          <g
             id="g26">
            <g
               id="g28"
               clip-path="url(#clipPath32)">
              <path
                 d="m 0,-3 c 0.795609,0 1.55874,0.316099 2.12132,0.87868 C 2.683901,-1.55874 3,-0.795609 3,0 3,0.795609 2.683901,1.55874 2.12132,2.12132 1.55874,2.683901 0.795609,3 0,3 -0.795609,3 -1.55874,2.683901 -2.12132,2.12132 -2.683901,1.55874 -3,0.795609 -3,0 -3,-0.795609 -2.683901,-1.55874 -2.12132,-2.12132 -1.55874,-2.683901 -0.795609,-3 0,-3 Z"
                 style="fill:#dd8452;fill-opacity:1;fill-rule:nonzero;stroke:#dd8452;stroke-width:2;stroke-linecap:butt;stroke-linejoin:round;stroke-miterlimit:10;stroke-dasharray:none;stroke-opacity:1"
                 id="path34" />
            </g>
          </g>
          <g
             id="g36"
             transform="translate(65.879578,-32.801671)">
            <g
               id="g38">
              <g
                 id="g40"
                 clip-path="url(#clipPath44)">
                <path
                   d="m 0,-3 c 0.795609,0 1.55874,0.316099 2.12132,0.87868 C 2.683901,-1.55874 3,-0.795609 3,0 3,0.795609 2.683901,1.55874 2.12132,2.12132 1.55874,2.683901 0.795609,3 0,3 -0.795609,3 -1.55874,2.683901 -2.12132,2.12132 -2.683901,1.55874 -3,0.795609 -3,0 -3,-0.795609 -2.683901,-1.55874 -2.12132,-2.12132 -1.55874,-2.683901 -0.795609,-3 0,-3 Z"
                   style="fill:#dd8452;fill-opacity:1;fill-rule:nonzero;stroke:#dd8452;stroke-width:2;stroke-linecap:butt;stroke-linejoin:round;stroke-miterlimit:10;stroke-dasharray:none;stroke-opacity:1"
                   id="path46" />
              </g>
            </g>
            <g
               id="g48"
               transform="translate(65.879578,91.908229)">
              <g
                 id="g50">
                <g
                   id="g52"
                   clip-path="url(#clipPath56)">
                  <path
                     d="m 0,-3 c 0.795609,0 1.55874,0.316099 2.12132,0.87868 C 2.683901,-1.55874 3,-0.795609 3,0 3,0.795609 2.683901,1.55874 2.12132,2.12132 1.55874,2.683901 0.795609,3 0,3 -0.795609,3 -1.55874,2.683901 -2.12132,2.12132 -2.683901,1.55874 -3,0.795609 -3,0 -3,-0.795609 -2.683901,-1.55874 -2.12132,-2.12132 -1.55874,-2.683901 -0.795609,-3 0,-3 Z"
                     style="fill:#dd8452;fill-opacity:1;fill-rule:nonzero;stroke:#dd8452;stroke-width:2;stroke-linecap:butt;stroke-linejoin:round;stroke-miterlimit:10;stroke-dasharray:none;stroke-opacity:1"
                     id="path58" />
                </g>
              </g>
              <g
                 id="g60"
                 transform="translate(65.879585,-132.81123)">
                <g
                   id="g62">
                  <g
                     id="g64"
                     clip-path="url(#clipPath68)">
                    <path
                       d="m 0,-3 c 0.795609,0 1.55874,0.316099 2.12132,0.87868 C 2.683901,-1.55874 3,-0.795609 3,0 3,0.795609 2.683901,1.55874 2.12132,2.12132 1.55874,2.683901 0.795609,3 0,3 -0.795609,3 -1.55874,2.683901 -2.12132,2.12132 -2.683901,1.55874 -3,0.795609 -3,0 -3,-0.795609 -2.683901,-1.55874 -2.12132,-2.12132 -1.55874,-2.683901 -0.795609,-3 0,-3 Z"
                       style="fill:#dd8452;fill-opacity:1;fill-rule:nonzero;stroke:#dd8452;stroke-width:2;stroke-linecap:butt;stroke-linejoin:round;stroke-miterlimit:10;stroke-dasharray:none;stroke-opacity:1"
                       id="path70" />
                  </g>
                </g>
                <g
                   id="g72"
                   transform="translate(65.879544,147.40932)">
                  <g
                     id="g74">
                    <g
                       id="g76"
                       clip-path="url(#clipPath80)">
                      <path
                         d="m 0,-3 c 0.795609,0 1.55874,0.316099 2.12132,0.87868 C 2.683901,-1.55874 3,-0.795609 3,0 3,0.795609 2.683901,1.55874 2.12132,2.12132 1.55874,2.683901 0.795609,3 0,3 -0.795609,3 -1.55874,2.683901 -2.12132,2.12132 -2.683901,1.55874 -3,0.795609 -3,0 -3,-0.795609 -2.683901,-1.55874 -2.12132,-2.12132 -1.55874,-2.683901 -0.795609,-3 0,-3 Z"
                         style="fill:#dd8452;fill-opacity:1;fill-rule:nonzero;stroke:#dd8452;stroke-width:2;stroke-linecap:butt;stroke-linejoin:round;stroke-miterlimit:10;stroke-dasharray:none;stroke-opacity:1"
                         id="path82" />
                    </g>
                  </g>
                  <g
                     id="g84"
                     transform="translate(65.879599,-132.81111)">
                    <g
                       id="g86">
                      <g
                         id="g88"
                         clip-path="url(#clipPath92)">
                        <path
                           d="m 0,-3 c 0.795609,0 1.55874,0.316099 2.12132,0.87868 C 2.683901,-1.55874 3,-0.795609 3,0 3,0.795609 2.683901,1.55874 2.12132,2.12132 1.55874,2.683901 0.795609,3 0,3 -0.795609,3 -1.55874,2.683901 -2.12132,2.12132 -2.683901,1.55874 -3,0.795609 -3,0 -3,-0.795609 -2.683901,-1.55874 -2.12132,-2.12132 -1.55874,-2.683901 -0.795609,-3 0,-3 Z"
                           style="fill:#dd8452;fill-opacity:1;fill-rule:nonzero;stroke:#dd8452;stroke-width:2;stroke-linecap:butt;stroke-linejoin:round;stroke-miterlimit:10;stroke-dasharray:none;stroke-opacity:1"
                           id="path94" />
                      </g>
                    </g>
                    <g
                       id="g96"
                       transform="translate(65.879571,91.908033)">
                      <g
                         id="g98">
                        <g
                           id="g100"
                           clip-path="url(#clipPath104)">
                          <path
                             d="m 0,-3 c 0.795609,0 1.55874,0.316099 2.12132,0.87868 C 2.683901,-1.55874 3,-0.795609 3,0 3,0.795609 2.683901,1.55874 2.12132,2.12132 1.55874,2.683901 0.795609,3 0,3 -0.795609,3 -1.55874,2.683901 -2.12132,2.12132 -2.683901,1.55874 -3,0.795609 -3,0 -3,-0.795609 -2.683901,-1.55874 -2.12132,-2.12132 -1.55874,-2.683901 -0.795609,-3 0,-3 Z"
                             style="fill:#dd8452;fill-opacity:1;fill-rule:nonzero;stroke:#dd8452;stroke-width:2;stroke-linecap:butt;stroke-linejoin:round;stroke-miterlimit:10;stroke-dasharray:none;stroke-opacity:1"
                             id="path106" />
                        </g>
                      </g>
                      <g
                         id="g108"
                         transform="translate(65.879571,-32.801521)">
                        <g
                           id="g110">
                          <g
                             id="g112"
                             clip-path="url(#clipPath116)">
                            <path
                               d="m 0,-3 c 0.795609,0 1.55874,0.316099 2.12132,0.87868 C 2.683901,-1.55874 3,-0.795609 3,0 3,0.795609 2.683901,1.55874 2.12132,2.12132 1.55874,2.683901 0.795609,3 0,3 -0.795609,3 -1.55874,2.683901 -2.12132,2.12132 -2.683901,1.55874 -3,0.795609 -3,0 -3,-0.795609 -2.683901,-1.55874 -2.12132,-2.12132 -1.55874,-2.683901 -0.795609,-3 0,-3 Z"
                               style="fill:#dd8452;fill-opacity:1;fill-rule:nonzero;stroke:#dd8452;stroke-width:2;stroke-linecap:butt;stroke-linejoin:round;stroke-miterlimit:10;stroke-dasharray:none;stroke-opacity:1"
                               id="path118" />
                          </g>
                        </g>
                      </g>
                    </g>
                  </g>
                </g>
              </g>
            </g>
          </g>
        </g>
      </g>
    </g>
    <g
       id="g120">
      <g
         id="g122"
         clip-path="url(#clipPath126)">
        <path
           d="m 54.277638,110.18229 9.937036,35.67785 -1.343849,0.37429 4.184861,4.62682 1.190537,-6.12398 -1.34385,0.37429 -9.937036,-35.67785 -2.687699,0.74858"
           style="fill:#4c72b0;fill-opacity:1;fill-rule:nonzero;stroke:none"
           id="path128" />
        <path
           d="m 122.83384,77.418335 9.78617,-31.656613 1.33277,0.412006 -1.01752,-6.155092 -4.31356,4.507068 1.33277,0.412006 -9.78617,31.656613 2.66554,0.824012"
           style="fill:#4c72b0;fill-opacity:1;fill-rule:nonzero;stroke:none"
           id="path130" />
        <path
           d="m 186.10695,169.48353 9.1583,20.5015 -1.2737,0.56897 4.82329,3.95682 0.27148,-6.23272 -1.27369,0.56898 -9.15829,-20.5015 -2.54739,1.13795"
           style="fill:#4c72b0;fill-opacity:1;fill-rule:nonzero;stroke:none"
           id="path132" />
        <path
           d="m 254.13097,37.193211 7.07468,-5.652187 0.87074,1.089879 2.61804,-5.662717 -6.101,1.303199 0.87074,1.089879 -7.07468,5.652188 1.74148,2.179759"
           style="fill:#4c72b0;fill-opacity:1;fill-rule:nonzero;stroke:none"
           id="path134" />
        <path
           d="m 320.01051,184.60253 7.07469,-5.65221 0.87074,1.08988 2.61803,-5.66272 -6.101,1.30321 0.87075,1.08988 -7.07469,5.65221 1.74148,2.17975"
           style="fill:#4c72b0;fill-opacity:1;fill-rule:nonzero;stroke:none"
           id="path136" />
        <path
           d="m 383.74568,51.270515 9.1583,20.501563 -1.27369,0.568974 4.82328,3.956823 0.27149,-6.23272 -1.2737,0.568974 -9.1583,-20.501562 -2.54738,1.137948"
           style="fill:#4c72b0;fill-opacity:1;fill-rule:nonzero;stroke:none"
           id="path138" />
        <path
           d="m 452.23171,143.02158 9.78618,-31.65664 1.33277,0.412 -1.01752,-6.15509 -4.31356,4.50707 1.33277,0.41201 -9.78618,31.65664 2.66554,0.82401"
           style="fill:#4c72b0;fill-opacity:1;fill-rule:nonzero;stroke:none"
           id="path140" />
        <path
           d="m 515.43466,110.18234 9.93704,35.67785 -1.34385,0.37429 4.18486,4.62682 1.19054,-6.12398 -1.34385,0.37429 -9.93704,-35.67785 -2.6877,0.74858"
           style="fill:#4c72b0;fill-opacity:1;fill-rule:nonzero;stroke:none"
           id="path142" />
      </g>
    </g>
    <g
       id="g144">
      <g
         id="g146"
         clip-path="url(#clipPath150)">
        <path
           d="m 55.621488,109.808 6.001042,24.28678 3.23133,12.16717 2.769712,9.54489 2.308094,7.1635 1.846473,5.13094 1.846475,4.54112 1.846475,3.90536 1.384856,2.48777 1.384856,2.09361 1.384855,1.68754 1.384857,1.27186 0.923237,0.6133 0.923237,0.42373 0.923238,0.23309 0.923237,0.0419 0.923237,-0.14947 0.923236,-0.34043 0.923237,-0.53052 0.92324,-0.71928 1.384855,-1.42872 1.384856,-1.84107 1.384855,-2.24294 1.384855,-2.63204 1.846477,-4.08845 1.846473,-4.71191 1.846474,-5.28772 2.308093,-7.33736 2.76971,-9.71751 3.23133,-12.31404 4.61619,-18.68625 6.92428,-28.076614 3.23133,-12.15026 2.76971,-9.525227 2.30809,-7.143822 1.84648,-5.113258 1.84647,-4.521924 1.84648,-3.884818 1.38486,-2.471609 1.38485,-2.076919 1.38486,-1.670386 1.38485,-1.254372 0.92324,-0.60149 0.92323,-0.411846 0.92324,-0.221151 0.92324,-0.0299 0.92324,0.161427 0.92324,0.352343 0.92324,0.542369 0.92323,0.731019 1.38486,1.44608 1.38485,1.858043 1.38486,2.259426 1.38485,2.647929 1.84648,4.108592 1.84647,4.73067 1.84648,5.304889 2.30809,7.356294 2.76971,9.736218 3.23133,12.329736 4.61619,18.696441 6.92428,28.0639 3.23133,12.13318 2.76971,9.5055 2.30809,7.12406 1.84648,5.09557 1.84648,4.50267 1.84647,3.86424 1.38486,2.45542 1.38485,2.0602 1.38486,1.65324 1.38485,1.23686 0.92324,0.58967 0.92324,0.39995 0.92323,0.20921 0.92324,0.0179 0.92324,-0.17337 0.92323,-0.36425 0.92324,-0.5542 0.92324,-0.74276 1.38485,-1.46342 1.38486,-1.875 1.38485,-2.27589 1.38487,-2.66382 1.84647,-4.12869 1.84648,-4.74938 1.84647,-5.322 2.30809,-7.37515 2.76971,-9.75482 3.23133,-12.34536 4.61618,-18.70636 6.92429,-28.051006 3.23133,-12.115984 2.76971,-9.485655 2.30809,-7.104271 1.84648,-5.077763 1.84647,-4.483339 1.84647,-3.843622 1.38486,-2.439234 1.38486,-2.04346 1.38485,-1.636059 1.38486,-1.219346 0.92323,-0.577855 0.92324,-0.388049 0.92325,-0.197273 0.92324,-0.006 0.92323,0.185323 0.92324,0.376157 0.92324,0.566036 0.92323,0.754486 1.38486,1.480764 1.38485,1.891902 1.38486,2.292325 1.38485,2.67967 1.84648,4.14876 1.84647,4.768026 1.84647,5.339054 2.3081,7.393961 2.76971,9.773332 3.23134,12.360896 4.61618,18.716164 6.46266,26.23652 3.23133,12.23367 2.76971,9.62257 2.30809,7.24149 1.84647,5.20109 1.84648,4.6175 1.8465,3.9872 1.38485,2.5521 1.38486,2.1602 1.38485,1.75595 1.38486,1.3417 0.92323,0.66046 0.92324,0.47124 0.92324,0.28083 0.92324,0.0897 0.92323,-0.10166 0.92324,-0.29276 0.92324,-0.4831 0.92323,-0.67225 1.38486,-1.35914 1.38485,-1.77302 1.38486,-2.17679 1.38485,-2.56818 1.84648,-4.00747 1.84647,-4.63643 1.84647,-5.21857 2.30809,-7.26081 2.3081,-7.9727 2.76971,-10.32887 3.69294,-14.6753 10.15561,-41.031283 2.76974,-10.172129 2.30809,-7.806117 2.30809,-7.064321 1.84647,-5.042065 1.84648,-4.444653 1.84647,-3.80228 1.38486,-2.406744 1.38485,-2.009921 1.38485,-1.601655 1.38486,-1.184266 0.92324,-0.554198 0.92323,-0.364247 0.92324,-0.173369 0.92324,0.01794 0.92323,0.209214 0.92324,0.399959 0.92324,0.589679 1.38485,1.236871 1.38486,1.653199 1.38485,2.060201 1.38486,2.455433 1.38485,2.836681 1.84648,4.347092 1.84647,4.951934 2.30809,6.963613 2.30809,7.719942 2.76971,10.089795 3.23133,12.618217 6.00107,24.556308 4.61618,18.51154 3.23133,12.06384 2.76971,9.42556 2.30809,7.04429 1.84648,5.02414 1.84647,4.42523 1.84647,3.78155 1.38486,2.39047 1.38485,1.99312 1.38486,1.58443 1.38485,1.16671 0.92324,0.54237 0.92324,0.35234 0.92323,0.16142 0.92324,-0.0299 0.92324,-0.22115 0.92323,-0.41185 0.92324,-0.6015 1.38486,-1.25433 1.38485,-1.6704 1.38486,-2.07692 1.38485,-2.47161 1.38486,-2.85224 1.84647,-4.36668 1.84647,-4.97006 2.30812,-6.98403 2.30809,-7.73734 2.76971,-10.10631 3.69295,-14.48864 12.00208,-48.208753 2.76971,-9.864414 2.30809,-7.486855 2.30809,-6.69348 1.84648,-4.711929 1.84647,-4.088445 1.38485,-2.632041 1.38486,-2.242942 1.38486,-1.841069 1.38485,-1.428718 1.38486,-1.00823 0.92323,-0.435611 0.92324,-0.245029 0.92324,-0.05382 0.92323,0.137526 0.92324,0.328519 0.92324,0.518663 0.92323,0.707523 1.38489,1.411384 1.38485,1.824089 1.38486,2.226445 1.38485,2.616121 1.84647,4.068271 1.84648,4.693143 1.84647,5.270521 2.30809,7.318344 2.76971,9.698605 3.23133,12.298223 4.61619,18.675909 0.92323,3.80228 v 0"
           style="fill:none;stroke:#4c72b0;stroke-width:1.5;stroke-linecap:round;stroke-linejoin:round;stroke-miterlimit:10;stroke-dasharray:none;stroke-opacity:1"
           id="path152" />
      </g>
    </g>
    <g
       id="g154">
      <g
         id="g156"
         clip-path="url(#clipPath160)">
        <path
           d="m 55.621488,109.808 2.308093,9.02672 2.308093,8.07667 2.308093,7.15049 1.846475,5.06958 1.846474,4.50431 1.846474,3.95126 1.846476,3.41043 1.846473,2.88181 1.384857,1.82181 1.384855,1.53649 1.384857,1.25633 1.384855,0.98131 1.384857,0.71146 1.384855,0.44676 1.384857,0.18722 1.384855,-0.0672 1.384857,-0.31641 1.384855,-0.5605 1.384855,-0.79943 1.384858,-1.0332 1.384855,-1.26182 1.846474,-2.02915 1.846473,-2.4142 1.846477,-2.78705 1.846474,-3.14765 2.308092,-4.42308 2.308093,-4.9436 2.30809,-5.44024 2.76972,-7.15027 2.76971,-7.78985 3.23133,-9.8415 3.23133,-10.590426 3.69294,-12.936402 3.69296,-13.096213 1.84647,-5.427558 1.38486,-3.501238 1.38485,-3.029202 1.38486,-2.571608 1.38485,-2.128456 1.38486,-1.699746 1.38486,-1.285485 1.38485,-0.885653 0.92324,-0.375442 0.92324,-0.20844 0.92323,-0.04572 0.92324,0.112726 1.38486,0.45681 1.38485,0.789238 1.38486,1.107222 1.38486,1.410773 1.38485,1.699868 1.84648,2.69124 1.84647,3.145288 1.84647,3.565102 2.3081,4.994589 2.30809,5.530196 2.76972,7.249114 3.23132,9.156255 3.69295,11.161358 5.53943,17.55851 8.30913,26.34537 3.69295,11.00735 3.23134,8.96835 1.84647,4.7132 1.38486,2.95722 1.38485,2.39114 1.38486,1.84594 0.92323,0.93805 0.92324,0.71119 0.92324,0.49052 0.92323,0.27603 0.92324,0.0677 0.92324,-0.13438 0.92323,-0.33032 0.92324,-0.52007 1.38486,-1.12237 1.38485,-1.51452 1.38486,-1.88581 1.38485,-2.23623 1.84647,-3.49066 1.84648,-4.02705 1.84649,-4.51402 2.30809,-6.25186 2.76971,-8.26845 3.23133,-10.49195 4.15456,-14.41936 12.92533,-45.676627 3.23133,-10.223462 2.76971,-7.970318 2.30809,-5.955474 1.84647,-4.245497 1.84648,-3.730676 1.84647,-3.166386 1.38486,-1.974717 1.38485,-1.608607 0.92324,-0.852508 0.92323,-0.622306 0.92324,-0.387238 0.92324,-0.159033 0.92325,0.06231 0.92323,0.276789 0.92324,0.484404 0.92324,0.685155 1.38485,1.389128 1.38486,1.802213 1.38485,2.192134 1.38486,2.55889 1.84647,3.942331 1.84648,4.498257 2.30809,6.320947 2.30809,6.996553 2.76971,9.13667 3.23133,11.446656 4.6162,17.263952 8.30913,31.25518 3.23132,11.34156 2.76971,9.01313 2.3081,6.87001 2.30809,6.17296 1.8465,4.36449 1.84647,3.79476 1.38486,2.4392 1.38485,2.06473 1.38486,1.66709 1.38485,1.24627 0.92324,0.58564 0.92324,0.38145 0.92323,0.1704 0.92324,-0.0475 0.92324,-0.27228 0.92323,-0.50392 0.92324,-0.74223 1.38486,-1.48194 1.38485,-1.855 1.38486,-2.2072 1.84647,-3.45472 1.84647,-3.99427 1.84648,-4.48436 2.30809,-6.21927 2.76971,-8.23585 3.23133,-10.46292 3.69294,-12.75968 14.3102,-50.360177 2.76971,-8.628399 2.76971,-7.866731 2.30809,-5.853328 1.84648,-4.15342 1.84647,-3.629393 1.84647,-3.055896 1.38486,-1.885806 1.38485,-1.514519 1.38486,-1.12236 0.92324,-0.520069 0.92323,-0.330318 0.92324,-0.134383 0.92324,0.06774 0.92323,0.276038 0.92324,0.490523 0.92324,0.711193 0.92323,0.938046 0.92324,1.171082 1.38486,2.207094 1.38485,2.76621 1.38485,3.341716 2.76971,7.458621 3.23133,9.349444 4.15457,12.763251 7.84754,25.087281 5.53942,17.30036 3.69295,10.81811 3.23132,8.74357 2.76971,6.81193 2.3081,5.10705 2.30809,4.51795 1.84647,3.14528 1.84648,2.69123 1.38485,1.69986 1.38486,1.41076 1.38485,1.10722 1.38486,0.78923 1.38485,0.45681 0.92324,0.11272 0.92323,-0.0457 0.92324,-0.20844 0.92324,-0.37545 0.92323,-0.54672 1.38486,-1.1506 1.38485,-1.56006 1.38486,-1.98394 1.38485,-2.42229 1.38486,-2.87506 1.38488,-3.34236 1.38486,-3.82396 1.84647,-5.87283 2.76971,-10.0474 3.69295,-12.93641 3.23133,-10.59043 3.23133,-9.84149 2.76971,-7.789838 2.76971,-7.150262 2.76971,-6.469448 2.30809,-4.841391 2.30809,-4.316106 1.84647,-3.058643 1.84648,-2.69497 1.84647,-2.319079 1.84647,-1.930972 1.38486,-1.186182 1.38485,-0.955845 1.38486,-0.720353 1.38485,-0.479706 1.38486,-0.233906 1.38485,0.01705 1.38486,0.27316 1.38488,0.534436 1.38486,0.800848 1.38485,1.07242 1.38486,1.349147 1.38485,1.631028 1.38486,1.918065 1.84647,3.012828 1.84647,3.544496 1.84648,4.088381 1.84647,4.644483 1.84647,5.212804 1.84648,5.793342 2.30809,8.076673 2.30809,9.02671 v 0"
           style="fill:none;stroke:#dd8452;stroke-width:2;stroke-linecap:round;stroke-linejoin:round;stroke-miterlimit:10;stroke-dasharray:none;stroke-opacity:1"
           id="path162" />
      </g>
    </g>
    <g
       id="g164">
      <g
         id="g166"
         clip-path="url(#clipPath170)">
        <path
           d="M 32.563636,109.808 H 539.83636"
           style="fill:none;stroke:#808080;stroke-width:0.7;stroke-linecap:round;stroke-linejoin:round;stroke-miterlimit:10;stroke-dasharray:none;stroke-opacity:1"
           id="path172" />
      </g>
    </g>
    <g
       id="g174">
      <path
         d="m 91.303125,17.73125 h 11.000005 11"
         style="fill:none;stroke:#4c72b0;stroke-width:1.5;stroke-linecap:round;stroke-linejoin:round;stroke-miterlimit:10;stroke-dasharray:none;stroke-opacity:1"
         id="path176" />
      <g
         id="g178"
         transform="translate(122.10313,13.88125)">
        <text
           xml:space="preserve"
           transform="scale(1,-1)"
           style="font-variant:normal;font-weight:normal;font-size:11px;font-family:'DejaVu Sans';-inkscape-font-specification:DejaVuSans;writing-mode:lr-tb;;fill-opacity:1;fill-rule:nonzero;stroke:none"
           id="text182"><tspan
             x="0 5.7309999 8.7889996 15.774 22.747999 29.490999"
             y="0"
             sodipodi:role="line"
             id="tspan180">signal</tspan></text>
      </g>
      <path
         d="m 187.65,13.76875 c 0.79561,0 1.55874,0.316099 2.12132,0.87868 0.56258,0.56258 0.87868,1.325711 0.87868,2.12132 0,0.795609 -0.3161,1.55874 -0.87868,2.12132 -0.56258,0.562581 -1.32571,0.87868 -2.12132,0.87868 -0.79561,0 -1.55874,-0.316099 -2.12132,-0.87868 -0.56258,-0.56258 -0.87868,-1.325711 -0.87868,-2.12132 0,-0.795609 0.3161,-1.55874 0.87868,-2.12132 0.56258,-0.562581 1.32571,-0.87868 2.12132,-0.87868 z"
         style="fill:#dd8452;fill-opacity:1;fill-rule:nonzero;stroke:#dd8452;stroke-width:2;stroke-linecap:butt;stroke-linejoin:round;stroke-miterlimit:10;stroke-dasharray:none;stroke-opacity:1"
         id="path184" />
      <g
         id="g186"
         transform="translate(207.45,13.88125)">
        <text
           xml:space="preserve"
           transform="scale(1,-1)"
           style="font-variant:normal;font-weight:normal;font-size:11px;font-family:'DejaVu Sans';-inkscape-font-specification:DejaVuSans;writing-mode:lr-tb;fill-opacity:1;fill-rule:nonzero;stroke:none"
           id="text190"><tspan
             x="0 5.7309999 12.474 23.188 30.173 33.230999 39.995998"
             y="0"
             sodipodi:role="line"
             id="tspan188">samples</tspan></text>
      </g>
      <path
         d="m 275.18437,17.73125 h 11 11"
         style="fill:none;stroke:#dd8452;stroke-width:2;stroke-linecap:round;stroke-linejoin:round;stroke-miterlimit:10;stroke-dasharray:none;stroke-opacity:1"
         id="path192" />
      <g
         id="g194"
         transform="translate(305.98437,13.88125)">
        <text
           xml:space="preserve"
           transform="scale(1,-1)"
           style="font-variant:normal;font-weight:normal;font-size:11px;font-family:'DejaVu Sans';-inkscape-font-specification:DejaVuSans;writing-mode:lr-tb;fill-opacity:1;fill-rule:nonzero;stroke:none"
           id="text198"><tspan
             x="0 3.0580001 10.032 14.344 21.108999 25.629999 32.615002 39.347 42.404999 49.147999 53.459999 56.518002 63.25"
             y="0"
             sodipodi:role="line"
             id="tspan196">interpolation</tspan></text>
      </g>
      <path
         d="m 414.69598,16.949885 v -0.36227 l -1.58445,-1.583154 -0.48345,0.483455 0.93983,0.938548 h -9.82639 v 0.684572 h 9.82639 l -0.93983,0.938548 0.48345,0.483455 z"
         style="fill:#4c72b0;fill-opacity:1;fill-rule:nonzero;stroke:#4c72b0;stroke-width:1;stroke-linecap:butt;stroke-linejoin:round;stroke-miterlimit:10;stroke-dasharray:none;stroke-opacity:1"
         id="path200" />
      <g
         id="g202"
         transform="translate(429.01875,13.88125)">
        <text
           xml:space="preserve"
           transform="scale(1,-1)"
           style="font-variant:normal;font-weight:normal;font-size:11px;font-family:'DejaVu Sans';-inkscape-font-specification:DejaVuSans;writing-mode:lr-tb;fill-opacity:1;fill-rule:nonzero;stroke:none"
           id="text206"><tspan
             x="0 6.9850001 11.506 18.249001 25.233999 28.292 35.056999 42.030998 46.342999"
             y="0"
             sodipodi:role="line"
             id="tspan204">gradients</tspan></text>
      </g>
    </g>
  </g>
</svg>
