<?xml version="1.0" encoding="UTF-8" standalone="no"?>
<!-- Created with Inkscape (http://www.inkscape.org/) -->

<svg
   version="1.1"
   id="svg2"
   width="763.19995"
   height="240.95999"
   viewBox="0 0 763.19995 240.95999"
   sodipodi:docname="spline_finite.pdf"
   xmlns:inkscape="http://www.inkscape.org/namespaces/inkscape"
   xmlns:sodipodi="http://sodipodi.sourceforge.net/DTD/sodipodi-0.dtd"
   xmlns="http://www.w3.org/2000/svg"
   xmlns:svg="http://www.w3.org/2000/svg">
   <style>
      path {
         text: black;
      }
      @media (prefers-color-scheme: dark) {
         text { fill: white; }
      }
   </style>
  <defs
     id="defs6">
    <clipPath
       clipPathUnits="userSpaceOnUse"
       id="clipPath22">
      <path
         d="m 7.2,7.2 h 558 V 173.52 H 7.2 Z"
         id="path20" />
    </clipPath>
    <clipPath
       clipPathUnits="userSpaceOnUse"
       id="clipPath32">
      <path
         d="M -8,-8 H 8 V 8 H -8 Z"
         id="path30" />
    </clipPath>
    <clipPath
       clipPathUnits="userSpaceOnUse"
       id="clipPath44">
      <path
         d="M -8,-8 H 8 V 8 H -8 Z"
         id="path42" />
    </clipPath>
    <clipPath
       clipPathUnits="userSpaceOnUse"
       id="clipPath56">
      <path
         d="M -8,-8 H 8 V 8 H -8 Z"
         id="path54" />
    </clipPath>
    <clipPath
       clipPathUnits="userSpaceOnUse"
       id="clipPath68">
      <path
         d="M -8,-8 H 8 V 8 H -8 Z"
         id="path66" />
    </clipPath>
    <clipPath
       clipPathUnits="userSpaceOnUse"
       id="clipPath80">
      <path
         d="M -8,-8 H 8 V 8 H -8 Z"
         id="path78" />
    </clipPath>
    <clipPath
       clipPathUnits="userSpaceOnUse"
       id="clipPath92">
      <path
         d="M -8,-8 H 8 V 8 H -8 Z"
         id="path90" />
    </clipPath>
    <clipPath
       clipPathUnits="userSpaceOnUse"
       id="clipPath104">
      <path
         d="M -8,-8 H 8 V 8 H -8 Z"
         id="path102" />
    </clipPath>
    <clipPath
       clipPathUnits="userSpaceOnUse"
       id="clipPath116">
      <path
         d="M -8,-8 H 8 V 8 H -8 Z"
         id="path114" />
    </clipPath>
    <clipPath
       clipPathUnits="userSpaceOnUse"
       id="clipPath126">
      <path
         d="m 7.2,7.2 h 558 V 173.52 H 7.2 Z"
         id="path124" />
    </clipPath>
    <clipPath
       clipPathUnits="userSpaceOnUse"
       id="clipPath150">
      <path
         d="m 7.2,7.2 h 558 V 173.52 H 7.2 Z"
         id="path148" />
    </clipPath>
    <clipPath
       clipPathUnits="userSpaceOnUse"
       id="clipPath160">
      <path
         d="m 7.2,7.2 h 558 V 173.52 H 7.2 Z"
         id="path158" />
    </clipPath>
    <clipPath
       clipPathUnits="userSpaceOnUse"
       id="clipPath170">
      <path
         d="m 7.2,7.2 h 558 V 173.52 H 7.2 Z"
         id="path168" />
    </clipPath>
  </defs>
  <sodipodi:namedview
     id="namedview4"
     pagecolor="transparent"
     bordercolor="#000000"
     borderopacity="0.25"
     inkscape:showpageshadow="2"
     inkscape:pageopacity="0.0"
     inkscape:pagecheckerboard="0"
     inkscape:deskcolor="#d1d1d1"
     showgrid="false" />
  <g
     id="g10"
     inkscape:groupmode="layer"
     inkscape:label="Page 1"
     transform="matrix(1.3333333,0,0,-1.3333333,0,240.95999)">
    <g
       id="g16">
      <g
         id="g18"
         clip-path="url(#clipPath22)">
        <g
           id="g24"
           transform="translate(55.621488,90.36)">
          <g
             id="g26">
            <g
               id="g28"
               clip-path="url(#clipPath32)">
              <path
                 d="m 0,-3 c 0.795609,0 1.55874,0.316099 2.12132,0.87868 C 2.683901,-1.55874 3,-0.795609 3,0 3,0.795609 2.683901,1.55874 2.12132,2.12132 1.55874,2.683901 0.795609,3 0,3 -0.795609,3 -1.55874,2.683901 -2.12132,2.12132 -2.683901,1.55874 -3,0.795609 -3,0 -3,-0.795609 -2.683901,-1.55874 -2.12132,-2.12132 -1.55874,-2.683901 -0.795609,-3 0,-3 Z"
                 style="fill:#dd8452;fill-opacity:1;fill-rule:nonzero;stroke:#dd8452;stroke-width:1;stroke-linecap:butt;stroke-linejoin:round;stroke-miterlimit:10;stroke-dasharray:none;stroke-opacity:1"
                 id="path34" />
            </g>
          </g>
          <g
             id="g36"
             transform="translate(65.879578,-32.801671)">
            <g
               id="g38">
              <g
                 id="g40"
                 clip-path="url(#clipPath44)">
                <path
                   d="m 0,-3 c 0.795609,0 1.55874,0.316099 2.12132,0.87868 C 2.683901,-1.55874 3,-0.795609 3,0 3,0.795609 2.683901,1.55874 2.12132,2.12132 1.55874,2.683901 0.795609,3 0,3 -0.795609,3 -1.55874,2.683901 -2.12132,2.12132 -2.683901,1.55874 -3,0.795609 -3,0 -3,-0.795609 -2.683901,-1.55874 -2.12132,-2.12132 -1.55874,-2.683901 -0.795609,-3 0,-3 Z"
                   style="fill:#dd8452;fill-opacity:1;fill-rule:nonzero;stroke:#dd8452;stroke-width:1;stroke-linecap:butt;stroke-linejoin:round;stroke-miterlimit:10;stroke-dasharray:none;stroke-opacity:1"
                   id="path46" />
              </g>
            </g>
            <g
               id="g48"
               transform="translate(65.879578,91.908229)">
              <g
                 id="g50">
                <g
                   id="g52"
                   clip-path="url(#clipPath56)">
                  <path
                     d="m 0,-3 c 0.795609,0 1.55874,0.316099 2.12132,0.87868 C 2.683901,-1.55874 3,-0.795609 3,0 3,0.795609 2.683901,1.55874 2.12132,2.12132 1.55874,2.683901 0.795609,3 0,3 -0.795609,3 -1.55874,2.683901 -2.12132,2.12132 -2.683901,1.55874 -3,0.795609 -3,0 -3,-0.795609 -2.683901,-1.55874 -2.12132,-2.12132 -1.55874,-2.683901 -0.795609,-3 0,-3 Z"
                     style="fill:#dd8452;fill-opacity:1;fill-rule:nonzero;stroke:#dd8452;stroke-width:1;stroke-linecap:butt;stroke-linejoin:round;stroke-miterlimit:10;stroke-dasharray:none;stroke-opacity:1"
                     id="path58" />
                </g>
              </g>
              <g
                 id="g60"
                 transform="translate(65.879585,-132.81123)">
                <g
                   id="g62">
                  <g
                     id="g64"
                     clip-path="url(#clipPath68)">
                    <path
                       d="m 0,-3 c 0.795609,0 1.55874,0.316099 2.12132,0.87868 C 2.683901,-1.55874 3,-0.795609 3,0 3,0.795609 2.683901,1.55874 2.12132,2.12132 1.55874,2.683901 0.795609,3 0,3 -0.795609,3 -1.55874,2.683901 -2.12132,2.12132 -2.683901,1.55874 -3,0.795609 -3,0 -3,-0.795609 -2.683901,-1.55874 -2.12132,-2.12132 -1.55874,-2.683901 -0.795609,-3 0,-3 Z"
                       style="fill:#dd8452;fill-opacity:1;fill-rule:nonzero;stroke:#dd8452;stroke-width:1;stroke-linecap:butt;stroke-linejoin:round;stroke-miterlimit:10;stroke-dasharray:none;stroke-opacity:1"
                       id="path70" />
                  </g>
                </g>
                <g
                   id="g72"
                   transform="translate(65.879544,147.40932)">
                  <g
                     id="g74">
                    <g
                       id="g76"
                       clip-path="url(#clipPath80)">
                      <path
                         d="m 0,-3 c 0.795609,0 1.55874,0.316099 2.12132,0.87868 C 2.683901,-1.55874 3,-0.795609 3,0 3,0.795609 2.683901,1.55874 2.12132,2.12132 1.55874,2.683901 0.795609,3 0,3 -0.795609,3 -1.55874,2.683901 -2.12132,2.12132 -2.683901,1.55874 -3,0.795609 -3,0 -3,-0.795609 -2.683901,-1.55874 -2.12132,-2.12132 -1.55874,-2.683901 -0.795609,-3 0,-3 Z"
                         style="fill:#dd8452;fill-opacity:1;fill-rule:nonzero;stroke:#dd8452;stroke-width:1;stroke-linecap:butt;stroke-linejoin:round;stroke-miterlimit:10;stroke-dasharray:none;stroke-opacity:1"
                         id="path82" />
                    </g>
                  </g>
                  <g
                     id="g84"
                     transform="translate(65.879599,-132.81111)">
                    <g
                       id="g86">
                      <g
                         id="g88"
                         clip-path="url(#clipPath92)">
                        <path
                           d="m 0,-3 c 0.795609,0 1.55874,0.316099 2.12132,0.87868 C 2.683901,-1.55874 3,-0.795609 3,0 3,0.795609 2.683901,1.55874 2.12132,2.12132 1.55874,2.683901 0.795609,3 0,3 -0.795609,3 -1.55874,2.683901 -2.12132,2.12132 -2.683901,1.55874 -3,0.795609 -3,0 -3,-0.795609 -2.683901,-1.55874 -2.12132,-2.12132 -1.55874,-2.683901 -0.795609,-3 0,-3 Z"
                           style="fill:#dd8452;fill-opacity:1;fill-rule:nonzero;stroke:#dd8452;stroke-width:1;stroke-linecap:butt;stroke-linejoin:round;stroke-miterlimit:10;stroke-dasharray:none;stroke-opacity:1"
                           id="path94" />
                      </g>
                    </g>
                    <g
                       id="g96"
                       transform="translate(65.879571,91.908033)">
                      <g
                         id="g98">
                        <g
                           id="g100"
                           clip-path="url(#clipPath104)">
                          <path
                             d="m 0,-3 c 0.795609,0 1.55874,0.316099 2.12132,0.87868 C 2.683901,-1.55874 3,-0.795609 3,0 3,0.795609 2.683901,1.55874 2.12132,2.12132 1.55874,2.683901 0.795609,3 0,3 -0.795609,3 -1.55874,2.683901 -2.12132,2.12132 -2.683901,1.55874 -3,0.795609 -3,0 -3,-0.795609 -2.683901,-1.55874 -2.12132,-2.12132 -1.55874,-2.683901 -0.795609,-3 0,-3 Z"
                             style="fill:#dd8452;fill-opacity:1;fill-rule:nonzero;stroke:#dd8452;stroke-width:1;stroke-linecap:butt;stroke-linejoin:round;stroke-miterlimit:10;stroke-dasharray:none;stroke-opacity:1"
                             id="path106" />
                        </g>
                      </g>
                      <g
                         id="g108"
                         transform="translate(65.879571,-32.801521)">
                        <g
                           id="g110">
                          <g
                             id="g112"
                             clip-path="url(#clipPath116)">
                            <path
                               d="m 0,-3 c 0.795609,0 1.55874,0.316099 2.12132,0.87868 C 2.683901,-1.55874 3,-0.795609 3,0 3,0.795609 2.683901,1.55874 2.12132,2.12132 1.55874,2.683901 0.795609,3 0,3 -0.795609,3 -1.55874,2.683901 -2.12132,2.12132 -2.683901,1.55874 -3,0.795609 -3,0 -3,-0.795609 -2.683901,-1.55874 -2.12132,-2.12132 -1.55874,-2.683901 -0.795609,-3 0,-3 Z"
                               style="fill:#dd8452;fill-opacity:1;fill-rule:nonzero;stroke:#dd8452;stroke-width:1;stroke-linecap:butt;stroke-linejoin:round;stroke-miterlimit:10;stroke-dasharray:none;stroke-opacity:1"
                               id="path118" />
                          </g>
                        </g>
                      </g>
                    </g>
                  </g>
                </g>
              </g>
            </g>
          </g>
        </g>
      </g>
    </g>
    <g
       id="g120">
      <g
         id="g122"
         clip-path="url(#clipPath126)">
        <path
           d="m 56.176743,91.639733 14.481589,-6.28333 0.555256,1.279733 4.00842,-4.780488 -6.229443,-0.338443 0.555256,1.279732 -14.481589,6.28333 1.110511,2.559466"
           style="fill:#4c72b0;fill-opacity:1;fill-rule:nonzero;stroke:none"
           id="path128" />
        <path
           d="m 120.42371,58.444519 16.05576,19.519241 -1.07735,0.88619 5.69947,2.537039 -1.39005,-6.081798 -1.07736,0.88619 -16.05576,-19.519242 -2.15471,1.77238"
           style="fill:#4c72b0;fill-opacity:1;fill-rule:nonzero;stroke:none"
           id="path130" />
        <path
           d="m 188.59299,150.15666 16.84011,-29.58403 1.21234,0.69011 0.33572,-6.22959 -5.1851,3.46917 1.21234,0.69011 -16.8401,29.58402 2.42469,1.38021"
           style="fill:#4c72b0;fill-opacity:1;fill-rule:nonzero;stroke:none"
           id="path132" />
        <path
           d="m 252.01895,17.29193 17.05413,33.253092 -1.24128,0.636599 5.02895,3.691907 -0.0639,-6.238303 -1.24127,0.636599 -17.05413,-33.253092 -2.48255,1.273198"
           style="fill:#4c72b0;fill-opacity:1;fill-rule:nonzero;stroke:none"
           id="path134" />
        <path
           d="m 320.35212,164.75476 16.8401,-29.584 1.21235,0.6901 0.33572,-6.22959 -5.1851,3.46918 1.21234,0.6901 -16.8401,29.584 2.42469,1.38021"
           style="fill:#4c72b0;fill-opacity:1;fill-rule:nonzero;stroke:none"
           id="path136" />
        <path
           d="m 383.94202,32.139732 16.05575,19.519196 -1.07735,0.88619 5.69947,2.537034 -1.39006,-6.081796 -1.07735,0.88619 -16.05576,-19.519196 -2.1547,1.772382"
           style="fill:#4c72b0;fill-opacity:1;fill-rule:nonzero;stroke:none"
           id="path138" />
        <path
           d="m 451.45419,124.44131 14.48159,-6.2833 0.55525,1.27973 4.00843,-4.78048 -6.22944,-0.33845 0.55525,1.27973 -14.48158,6.2833 1.1105,2.55947"
           style="fill:#4c72b0;fill-opacity:1;fill-rule:nonzero;stroke:none"
           id="path140" />
        <path
           d="m 517.33377,91.639787 14.48158,-6.283299 0.55525,1.279733 4.00843,-4.780481 -6.22944,-0.338454 0.55525,1.279734 -14.48158,6.283299 1.11051,2.559468"
           style="fill:#4c72b0;fill-opacity:1;fill-rule:nonzero;stroke:none"
           id="path142" />
      </g>
    </g>
    <g
       id="g144">
      <g
         id="g146"
         clip-path="url(#clipPath150)">
        <path
           d="m 55.621488,90.36 6.001042,24.28678 3.23133,12.16717 2.769712,9.54489 2.308094,7.1635 1.846473,5.13094 1.846475,4.54112 1.846475,3.90536 1.384856,2.48777 1.384856,2.09361 1.384855,1.68754 1.384857,1.27186 0.923237,0.6133 0.923237,0.42373 0.923238,0.23309 0.923237,0.0419 0.923237,-0.14947 0.923236,-0.34043 0.923237,-0.53052 0.92324,-0.71928 1.384855,-1.42872 1.384856,-1.84107 1.384855,-2.24294 1.384855,-2.63204 1.846477,-4.08845 1.846473,-4.71191 1.846474,-5.28772 2.308093,-7.33736 2.76971,-9.71751 3.23133,-12.31403 4.61619,-18.686258 6.92428,-28.076616 3.23133,-12.15026 2.76971,-9.525227 2.30809,-7.143822 1.84648,-5.113258 1.84647,-4.521924 1.84648,-3.884818 1.38486,-2.471609 1.38485,-2.076919 1.38486,-1.670386 1.38485,-1.254372 0.92324,-0.60149 0.92323,-0.411846 0.92324,-0.221151 0.92324,-0.0299 0.92324,0.161427 0.92324,0.352343 0.92324,0.542369 0.92323,0.731019 1.38486,1.44608 1.38485,1.858043 1.38486,2.259426 1.38485,2.647929 1.84648,4.108592 1.84647,4.73067 1.84648,5.304889 2.30809,7.356294 2.76971,9.736218 3.23133,12.329736 4.61619,18.696444 6.92428,28.063897 3.23133,12.13318 2.76971,9.5055 2.30809,7.12406 1.84648,5.09557 1.84648,4.50267 1.84647,3.86424 1.38486,2.45542 1.38485,2.0602 1.38486,1.65324 1.38485,1.23686 0.92324,0.58967 0.92324,0.39995 0.92323,0.20921 0.92324,0.0179 0.92324,-0.17337 0.92323,-0.36425 0.92324,-0.5542 0.92324,-0.74276 1.38485,-1.46342 1.38486,-1.875 1.38485,-2.27589 1.38487,-2.66382 1.84647,-4.12869 1.84648,-4.74938 1.84647,-5.322 2.30809,-7.37515 2.76971,-9.75482 3.23133,-12.34536 4.61618,-18.706358 6.92429,-28.051008 3.23133,-12.115984 2.76971,-9.485655 2.30809,-7.104271 1.84648,-5.077763 1.84647,-4.483339 1.84647,-3.843622 1.38486,-2.439234 1.38486,-2.04346 1.38485,-1.636059 1.38486,-1.219346 0.92323,-0.577855 0.92324,-0.388049 0.92325,-0.197273 0.92324,-0.006 0.92323,0.185323 0.92324,0.376157 0.92324,0.566036 0.92323,0.754486 1.38486,1.480764 1.38485,1.891902 1.38486,2.292325 1.38485,2.67967 1.84648,4.14876 1.84647,4.768026 1.84647,5.339054 2.3081,7.393961 2.76971,9.773332 3.23134,12.360896 4.61618,18.716168 6.46266,26.236516 3.23133,12.23367 2.76971,9.62257 2.30809,7.24149 1.84647,5.20109 1.84648,4.6175 1.8465,3.9872 1.38485,2.5521 1.38486,2.1602 1.38485,1.75595 1.38486,1.3417 0.92323,0.66046 0.92324,0.47124 0.92324,0.28083 0.92324,0.0897 0.92323,-0.10166 0.92324,-0.29276 0.92324,-0.4831 0.92323,-0.67225 1.38486,-1.35914 1.38485,-1.77302 1.38486,-2.17679 1.38485,-2.56818 1.84648,-4.00747 1.84647,-4.63643 1.84647,-5.21857 2.30809,-7.26081 2.3081,-7.9727 2.76971,-10.32887 3.69294,-14.6753 10.15561,-41.031283 2.76974,-10.172129 2.30809,-7.806117 2.30809,-7.064321 1.84647,-5.042065 1.84648,-4.444653 1.84647,-3.80228 1.38486,-2.406744 1.38485,-2.009921 1.38485,-1.601655 1.38486,-1.184266 0.92324,-0.554198 0.92323,-0.364247 0.92324,-0.173369 0.92324,0.01794 0.92323,0.209214 0.92324,0.399959 0.92324,0.589679 1.38485,1.236871 1.38486,1.653199 1.38485,2.060201 1.38486,2.455433 1.38485,2.836681 1.84648,4.347092 1.84647,4.951934 2.30809,6.963613 2.30809,7.719942 2.76971,10.089795 3.23133,12.618217 6.00107,24.556309 4.61618,18.511539 3.23133,12.06384 2.76971,9.42556 2.30809,7.04429 1.84648,5.02414 1.84647,4.42523 1.84647,3.78155 1.38486,2.39047 1.38485,1.99312 1.38486,1.58443 1.38485,1.16671 0.92324,0.54237 0.92324,0.35234 0.92323,0.16142 0.92324,-0.0299 0.92324,-0.22115 0.92323,-0.41185 0.92324,-0.6015 1.38486,-1.25434 1.38485,-1.67039 1.38486,-2.07692 1.38485,-2.47161 1.38486,-2.85223 1.84647,-4.36669 1.84647,-4.97006 2.30812,-6.98403 2.30809,-7.73734 2.76971,-10.10631 3.69295,-14.48863 12.00208,-48.208763 2.76971,-9.864414 2.30809,-7.486855 2.30809,-6.69348 1.84648,-4.711929 1.84647,-4.088445 1.38485,-2.632041 1.38486,-2.242942 1.38486,-1.841069 1.38485,-1.428718 1.38486,-1.00823 0.92323,-0.435611 0.92324,-0.245029 0.92324,-0.05382 0.92323,0.137526 0.92324,0.328519 0.92324,0.518663 0.92323,0.707523 1.38489,1.411384 1.38485,1.824089 1.38486,2.226445 1.38485,2.616121 1.84647,4.068271 1.84648,4.693143 1.84647,5.270521 2.30809,7.318344 2.76971,9.698605 3.23133,12.298223 4.61619,18.675913 0.92323,3.802279 v 0"
           style="fill:none;stroke:#4c72b0;stroke-width:2;stroke-linecap:round;stroke-linejoin:round;stroke-miterlimit:10;stroke-dasharray:none;stroke-opacity:1"
           id="path152" />
      </g>
    </g>
    <g
       id="g154">
      <g
         id="g156"
         clip-path="url(#clipPath160)">
        <path
           d="m 55.621488,90.36 2.308093,-0.286388 2.308093,-0.518083 2.308093,-0.730671 2.769712,-1.130522 2.769711,-1.376121 3.231331,-1.871841 3.69295,-2.426303 4.154567,-3.002044 6.462661,-4.988959 8.309134,-6.383604 4.154569,-2.925019 3.692948,-2.329448 3.23133,-1.765173 2.76971,-1.268413 2.76971,-1.007781 2.3081,-0.616908 2.30809,-0.393882 2.30809,-0.151751 2.30809,0.109487 1.84648,0.289113 1.38486,0.414899 1.38486,0.640559 1.38485,0.855649 1.84647,1.457177 1.84648,1.795712 1.84647,2.109189 2.3081,3.039155 2.30809,3.44087 2.76971,4.590416 2.76971,5.013867 3.69296,7.197715 4.61618,9.538985 11.07885,23.113798 3.69294,7.07212 2.76971,4.88829 2.76972,4.43794 2.30809,3.29325 2.30809,2.87283 1.84648,1.96268 1.84647,1.63725 1.84648,1.28675 1.38485,0.71998 1.38486,0.49817 1.38485,0.26578 1.38487,0.0228 1.38485,-0.23071 1.38486,-0.51843 1.38485,-0.84209 1.38486,-1.15159 1.38485,-1.44615 1.38486,-1.7258 1.84647,-2.71028 1.84648,-3.14555 1.84647,-3.54544 2.30809,-4.94028 2.30809,-5.44078 2.76971,-7.09234 3.23135,-8.90039 4.15456,-12.142065 13.84855,-41.194103 3.23133,-8.67419 2.76973,-6.843734 2.30809,-5.194948 2.30809,-4.659327 1.84647,-3.295397 1.84648,-2.873026 1.84647,-2.415289 1.38485,-1.489801 1.38486,-1.197511 1.38485,-0.8903 1.38486,-0.568168 0.92324,-0.19245 0.92323,-0.03823 0.92324,0.120414 0.92324,0.283266 1.38485,0.727955 1.38486,1.077352 1.38487,1.410449 1.38485,1.727203 1.38486,2.027655 1.84647,3.142709 1.84647,3.60917 2.3081,5.108505 2.30809,5.70139 2.76971,7.517928 3.23133,9.538373 3.69294,11.659241 5.53944,18.352799 7.38589,24.45869 3.69295,11.52826 3.23133,9.376 2.76971,7.34327 2.30809,5.53083 2.30812,4.91526 1.84647,3.43815 1.84647,2.95714 1.38486,1.87892 1.38485,1.57028 1.38486,1.24533 1.38486,0.90406 1.38485,0.54648 0.92324,0.1576 0.92323,-0.0134 0.92324,-0.18917 1.38486,-0.57688 1.38485,-0.8919 1.38486,-1.19245 1.38485,-1.47851 1.38486,-1.7501 1.84647,-2.73091 1.84647,-3.15367 2.30809,-4.48432 2.3081,-5.02424 2.76971,-6.6474 3.23133,-8.46143 3.69294,-10.37614 5.0778,-15.01108 8.77078,-26.02127 3.69295,-10.257946 3.23133,-8.317175 2.76971,-6.493424 2.30809,-4.87454 2.30809,-4.315183 1.84647,-3.004366 1.84648,-2.56916 1.38485,-1.620621 1.38486,-1.342036 1.38485,-1.048971 1.38486,-0.741429 1.38485,-0.419409 0.92324,-0.09356 0.92324,0.06029 1.38485,0.342242 1.38486,0.561342 1.38485,0.768265 1.84647,1.329342 1.84648,1.65666 1.84647,1.960813 2.30809,2.843434 2.30812,3.237261 2.76971,4.340756 2.76971,4.764456 3.23133,5.989726 4.15457,8.192267 15.69502,31.525153 3.23133,5.737873 2.76971,4.49246 2.30809,3.38379 2.30809,3.00834 1.84648,2.10592 1.84647,1.8135 1.84647,1.49791 1.84648,1.15914 1.38488,0.63312 1.38486,0.41974 1.38485,0.19661 1.38486,-0.0316 2.30809,-0.29369 2.76971,-0.60257 2.76971,-0.8518 2.76971,-1.07595 3.23133,-1.50513 3.69294,-2.00088 4.15457,-2.53787 5.0778,-3.39521 10.15561,-7.16861 6.00106,-4.06814 4.15457,-2.57481 3.69294,-2.043853 3.23133,-1.55057 3.23133,-1.286913 2.76971,-0.863041 2.76971,-0.615013 2.30809,-0.304957 0.46162,-0.03696 v 0"
           style="fill:none;stroke:#dd8452;stroke-width:2;stroke-linecap:round;stroke-linejoin:round;stroke-miterlimit:10;stroke-dasharray:none;stroke-opacity:1"
           id="path162" />
      </g>
    </g>
    <g
       id="g164">
      <g
         id="g166"
         clip-path="url(#clipPath170)">
        <path
           d="M 32.563636,90.36 H 539.83636"
           style="fill:none;stroke:#808080;stroke-width:0.7;stroke-linecap:round;stroke-linejoin:round;stroke-miterlimit:10;stroke-dasharray:none;stroke-opacity:1"
           id="path172" />
      </g>
    </g>
  </g>
</svg>
